<svg width="760" height="676" viewBox="0 0 760 676" fill="none" xmlns="http://www.w3.org/2000/svg">
<g clip-path="url(#clip0_2323_2005)">
<path d="M556.724 1.49199C515.467 1.49199 477.634 14.6456 444.313 40.5584C413.486 64.5321 392.634 94.8178 380 117.522C367.366 94.8164 346.514 64.5322 315.687 40.5584C282.366 14.6456 244.533 1.49199 203.276 1.49199C88.1496 1.49199 1.49414 96.1987 1.49414 221.437C1.49414 289.165 28.5527 346.141 75.875 403.559C123.142 460.91 190.735 518.831 271.971 588.444L272.064 588.524L272.079 588.536C299.692 612.199 330.982 639.013 363.503 667.611C368.064 671.627 373.923 673.838 380 673.838C386.078 673.838 391.937 671.627 396.498 667.612C429.027 639.006 460.321 612.188 487.954 588.509L488.047 588.429C569.274 518.824 636.863 460.906 684.128 403.557C731.448 346.141 758.506 289.165 758.506 221.437C758.506 96.1987 671.851 1.49199 556.724 1.49199Z" stroke="#f16b2ee6" stroke-width="2.9882"/>
</g>
<defs>
<clipPath id="clip0_2323_2005">
<rect width="760" height="675.334" fill="white" transform="translate(0 -0.00210571)"/>
</clipPath>
</defs>
</svg>
